<?xml version="1.0" encoding="utf-8"?>
<!-- Generator: Adobe Illustrator 22.0.0, SVG Export Plug-In . SVG Version: 6.00 Build 0)  -->
<svg version="1.1" id="layer" xmlns="http://www.w3.org/2000/svg" xmlns:xlink="http://www.w3.org/1999/xlink" x="0px" y="0px"
	 viewBox="0 0 600 110.9" style="enable-background:new 0 0 600 110.9;" xml:space="preserve">
<path d="M93.3,0.1L82.2,11l38.5,38.5L82.2,88l11.1,10.9l49.4-49.4"/>
<path d="M0,49.5L49.4,0.1l49.5,49.5L49.4,99L0,49.5z M212.6,86.4l-5.2-17.5h-26.8l-5.2,17.5h-16.7l25.8-73.6h18.9l26,73.6H212.6z
	 M203.5,55.9c-4.8-15.7-7.7-24.8-8.3-26.8s-1-3.6-1.4-4.8c-1,4.2-4.2,14.9-9.5,31.6C184.4,55.9,203.5,55.9,203.5,55.9z M289,86.4
	h-15.3V53.5c0.2-3.2-0.6-6.2-2.2-9.1c-1.6-2-4.2-3.2-6.9-3c-3.6-0.4-7.1,1.4-9.3,4.2c-1.8,2.8-2.8,7.7-2.8,14.1v26.4h-15.3V30.4
	h11.7l2,7.3h0.8c1.6-2.6,4.2-4.8,7.1-6c3.2-1.4,6.7-2,10.3-2c6.4,0,11.5,1.8,14.9,5.2s5,8.7,5.2,15.1v36.5L289,86.4L289,86.4z
	 M295.2,30.3h16.7l10.5,31.4c1,3.2,1.6,6.4,1.8,9.7h0.2c0.4-3.2,1-6.7,2.2-9.7l10.3-31.4h16.3l-23.6,63.1c-1.8,5.2-5,9.9-9.3,13.1
	c-4,3-9.1,4.4-14.1,4.4c-2.6,0-5.2-0.2-7.7-0.8V98c2,0.4,4,0.6,6,0.6c2.6,0,5-0.8,7.1-2.4c2.2-2,3.8-4.6,4.8-7.5l0.8-2.8
	C317.4,85.9,295.2,30.3,295.2,30.3z M423.6,48.9c0,12.1-3.4,21.2-10.3,27.6s-16.7,9.7-29.6,9.7h-21V13h23c12.1,0,21.4,3.2,27.8,9.5
	C420.2,28.9,423.4,37.6,423.6,48.9z M407.3,49.3c0-15.7-6.9-23.6-20.8-23.6h-8.3v47.8h6.7C399.8,73.5,407.5,65.4,407.3,49.3z
	 M460.3,87.4c-9.1,0-16.1-2.4-21.2-7.5s-7.7-12.1-7.7-21.2c0-9.3,2.4-16.5,7.1-21.8c4.6-5.2,11.1-7.7,19.6-7.7
	c7.9,0,14.1,2.2,18.5,6.9c4.4,4.4,6.7,10.7,6.7,18.7v7.5h-36.1c0,3.8,1.4,7.5,3.8,10.3c2.8,2.6,6.4,3.8,10.1,3.6
	c3.2,0,6.4-0.4,9.5-1c3.2-0.8,6.4-1.8,9.5-3.4v11.9c-2.6,1.4-5.6,2.4-8.5,3C467.8,87,464.1,87.4,460.3,87.4z M458.1,40.3
	c-2.8-0.2-5.6,1-7.7,3c-2,2.4-3,5.6-3.2,8.7h21.4c0.2-3.2-1-6.2-3-8.7C463.7,41,461.1,40,458.1,40.3z M534.7,69.6
	c0.2,5-2,10.1-6,13.1s-10.1,4.4-17.9,4.4c-3.4,0-7.1-0.2-10.5-0.8c-2.8-0.6-5.4-1.4-8.1-2.4V71.3c3,1.4,6.2,2.6,9.7,3.4
	c3,0.8,6.2,1.2,9.5,1.4c5.6,0,8.3-1.6,8.3-4.8c0-1-0.4-2.2-1-3c-1.2-1-2.4-1.8-3.8-2.6c-1.8-1-4.2-2-7.3-3.4c-3.4-1.2-6.4-3-9.5-5
	c-1.8-1.4-3.4-3.2-4.4-5.2c-1-2.4-1.4-4.8-1.4-7.3c-0.2-4.6,2-8.9,5.8-11.5s9.3-4,16.3-4c6.9,0,13.5,1.4,19.8,4.4l-4.6,11.1
	c-2.8-1.2-5.4-2.2-7.9-3c-2.4-0.8-4.8-1.2-7.5-1.2c-4.4,0-6.9,1.2-6.9,3.6c0,1.4,0.8,2.8,2.2,3.6c3,1.8,6.2,3.2,9.5,4.4
	c3.4,1.2,6.7,2.8,9.7,5c1.8,1.4,3.4,3.2,4.4,5.2C534.3,64.8,534.7,67.3,534.7,69.6L534.7,69.6z M559.1,55.9l6.7-8.5l15.7-17.1h17.3
	l-22.4,24.2L600,86.1h-17.7l-16.1-22.8l-6.7,5.2v17.5h-15.3V8.3h15.3v34.9l-0.8,12.7L559.1,55.9L559.1,55.9z"/>
</svg>
