<svg id="cadsus" xmlns="http://www.w3.org/2000/svg" viewBox="0 0 1527.2 976"><defs><style>.cls-1{fill:#096e44;}.cls-2{fill:#ffc928;}.cls-3{fill:#2367b3;}</style></defs><title>icons</title><polygon class="cls-1" points="932.05 488 1420.08 976 111.71 976 111.71 0 1420.08 0 932.05 488"/><path class="cls-2" d="M628.11,232v976H591.36a75,75,0,0,1-75-75V307a75,75,0,0,1,75-75Z" transform="translate(-516.4 -232)"/><path class="cls-3" d="M2043.6,348.3v743.4c-192.17-15-343.45-175.68-343.45-371.7S1851.43,363.29,2043.6,348.3Z" transform="translate(-516.4 -232)"/><path class="cls-2" d="M1700.15,720c0,196,151.28,356.71,343.45,371.7V1133a75,75,0,0,1-75,75h-32.16l-488-488,488-488h32.16a75,75,0,0,1,75,75V348.3C1851.43,363.29,1700.15,524,1700.15,720Z" transform="translate(-516.4 -232)"/></svg>