<svg xmlns="http://www.w3.org/2000/svg" viewBox="0 0 937.01 945.88"><defs><style>.a{fill:#e0145e;}.b{fill:#b12555;}</style></defs><title>icons</title><path class="a" d="M1482.05,800.65a41.87,41.87,0,0,0-28.74,11.45,292.81,292.81,0,0,1-205.1,80.69C1083.35,891,951.07,753.42,957.89,586.62c6.33-154.69,133.59-278.78,288.38-281.48a292.69,292.69,0,0,1,137.6,31.41,28.65,28.65,0,0,0,36.28-9.06l.36-.51A28.74,28.74,0,0,0,1410,284.71a350.67,350.67,0,0,0-162.85-37.62c-190.89,2.33-346.22,158.52-347.51,349.43C898.3,792,1056.35,950.84,1251.49,950.84c115.19,0,217.11-54.67,281.24-139.71a6.57,6.57,0,0,0-5.28-10.48Z" transform="translate(-811.49 -247.06)"/><path class="a" d="M1500.12,362.89a28.38,28.38,0,1,1-28.37-28.39,28.38,28.38,0,0,1,28.37,28.39" transform="translate(-811.49 -247.06)"/><path class="b" d="M1006.76,1070.05a37.29,37.29,0,0,0-13.63-19.43,43.3,43.3,0,0,0-15.61-6.5q-9.24-2-23.76-2H900.31a7.49,7.49,0,0,0-5,2,7.8,7.8,0,0,0-2.76,4.66l-15.2,87.3a4,4,0,0,0,3.94,4.69h5.93c10.51,0,20.55-8.54,22.4-19.1l8.43-49.38a4.59,4.59,0,0,1,4.33-3.7H946.9q20.28,0,27.3,6.22t4.22,22.14c-1,5.7-7.7,50-9.62,53.63a25.87,25.87,0,0,1-7.34,8.74,32.53,32.53,0,0,1-11.93,4.75,91.85,91.85,0,0,1-17.92,1.45H848.39a2.83,2.83,0,0,1-2.85-3.47L858,1089.81c.59-3.76-13.8-2.37-22.19,3.76a22.27,22.27,0,0,0-8,9.82,57.27,57.27,0,0,0-3.23,11.26l-13,71.43a2.35,2.35,0,0,0,0,.26,5.36,5.36,0,0,0,5.48,6.1l113-.11a126.26,126.26,0,0,0,24.72-2.14,56.31,56.31,0,0,0,17.7-6.5,63.53,63.53,0,0,0,20.49-19.62c5.43-8.16,13.32-57,15.1-67.22q2.57-14.56-1.28-26.8" transform="translate(-811.49 -247.06)"/><path class="b" d="M864.05,1056.54a14.42,14.42,0,1,1-14.41-14.42,14.42,14.42,0,0,1,14.41,14.42" transform="translate(-811.49 -247.06)"/><path class="b" d="M1076.86,1042.3a38.3,38.3,0,0,0-15.75,3.52,55.28,55.28,0,0,0-14.75,9.82,64.33,64.33,0,0,0-11.71,14.59,57,57,0,0,0-6.84,17.57,47.49,47.49,0,0,0-.58,17.36,34.81,34.81,0,0,0,5.3,14,23.34,23.34,0,0,0,9,8.13,28.31,28.31,0,0,0,14.26,3.39h28v-.08h28.52a14.36,14.36,0,0,1,14.35,14.36v.28c0,10.27-10.4,18.68-20.25,20.14a13.63,13.63,0,0,1-2.83.31h-63.86a61.52,61.52,0,0,0-12.38,1.21c-3.93.77-14.2,5.25-17.92,15.45-1.26,3.47-2.46,7.24-3.33,10.13h101.3a38.44,38.44,0,0,0,15.75-3.5,54.12,54.12,0,0,0,14.6-9.77,69.07,69.07,0,0,0,11.58-15.08,57.37,57.37,0,0,0,6.82-17.53,46.37,46.37,0,0,0,.56-17.15,31,31,0,0,0-5-13,29.67,29.67,0,0,0-10.06-9.31,27.78,27.78,0,0,0-13.77-3.37l-57.89.13c-8.14,0-12.78-6.8-12.52-15,.37-11.23,10.41-19.78,21.66-19.78h12.36v.07h49.75a73.07,73.07,0,0,0,14.06-1.45,25.6,25.6,0,0,0,12.43-6.64,30.08,30.08,0,0,0,7.82-11.21c1.39-3.54,2.15-4.67,3-7.57Z" transform="translate(-811.49 -247.06)"/><path class="a" d="M1190.74,1192.94a10.15,10.15,0,0,1,10-8.35h49.34c15.72,0,21.79-9.24,25.76-31.2s1.37-31.67-14.39-31.67h-31.22c-22.69,0-27.77-13.74-23.3-38.43,4.75-26.23,15.58-39.51,37.38-39.51h50.13a10.15,10.15,0,0,1-10,8.35h-41.65c-16.77,0-24.37,8.56-28.45,31.18-4,21.88.42,30.07,17.39,30.07h31.21c19.61,0,25.37,12.47,20.38,40.08-4.92,27.28-15.07,39.48-34.76,39.48Z" transform="translate(-811.49 -247.06)"/><path class="a" d="M1384.19,1150.11h-68l-19.11,40.75h-7.87l68.3-145h23l15.92,145h-7.87Zm-.9-8.34-9.42-87.57h-12.66l-41.07,87.57Z" transform="translate(-811.49 -247.06)"/><path class="a" d="M1414.62,1151.5l19.08-105.64h7.54l-19.07,105.64c-4.05,22.41,2.95,33.09,21.21,33.09H1469c18.27,0,29.15-10.68,33.19-33.09l19.08-105.64h7.53L1509.7,1151.5c-4.87,26.93-19.65,41.44-42.23,41.44h-25.6c-22.56,0-32.1-14.51-27.25-41.44m88.32-139.38h8.67l-25.81,28a10.57,10.57,0,0,1-7.74,3.4h-3.44Z" transform="translate(-811.49 -247.06)"/><path class="a" d="M1638.84,1087.28l-11.23,62.15c-4.87,26.92-19.64,41.43-42.22,41.43h-58.11l26.2-145h58.09c22.58,0,32.12,14.49,27.27,41.41m-7.54,0c4-22.41-3-33.08-21.22-33.08h-50.57l-23.18,128.31h50.57c18.27,0,29.12-10.68,33.18-33.08Z" transform="translate(-811.49 -247.06)"/><polygon class="a" points="862.2 807.14 851.54 866.09 918.06 866.09 916.55 874.42 850.04 874.42 839.01 935.45 912.34 935.45 910.83 943.79 832.9 943.79 829.97 943.79 856.15 798.8 863.69 798.8 937.01 798.8 935.52 807.14 862.2 807.14"/><path class="b" d="M1306.69,525a18.32,18.32,0,0,0,6.26-1.11,67.1,67.1,0,0,1,22.67-3.86c33.08,0,60.89,24.14,68.85,56.72h38.64c-8.71-53.64-53.53-94.65-107.49-94.65a104.31,104.31,0,0,0-35.39,6.1,19,19,0,0,0,6.46,36.8" transform="translate(-811.49 -247.06)"/><path class="b" d="M1255.67,480.52a51.86,51.86,0,1,1,51.85-51.87,51.93,51.93,0,0,1-51.85,51.87m0-74.93a23.07,23.07,0,1,0,23,23.06,23.09,23.09,0,0,0-23-23.06" transform="translate(-811.49 -247.06)"/><path class="b" d="M1244.11,607.19l-11.42,31.45H1202v-.12H1054.72c-8.89-1-15.14-7.81-15.14-16.17a16.31,16.31,0,0,1,16.28-16.28h154.51L1238.07,492l63.57,142,13.21-28h110.39L1427,606h13.76v.05h14.72a16.29,16.29,0,0,1,0,32.57H1337.09l-35,89.59Z" transform="translate(-811.49 -247.06)"/><path class="b" d="M1216.31,507.79a19.09,19.09,0,0,0-14.57-23.09,106.07,106.07,0,0,0-23.59-2.61c-54,0-98.77,41-107.5,94.65h38.64c8-32.56,35.77-56.71,68.86-56.71a68.74,68.74,0,0,1,15,1.6c10.34,2.28,20.68-3.57,23.19-13.84" transform="translate(-811.49 -247.06)"/><path class="b" d="M1377.81,667.63c-.29.4-.51.78-.81,1.2-18.81,26.34-54.69,66.37-118.75,107.41l-1.36.86-1.37-.86c-61.92-39.66-98.24-79-119.19-108.61h-45.54c21.13,36.75,65.4,92.55,156.21,148l9.89,6,9.88-6c90.84-55.47,135.09-111.25,156.21-148Z" transform="translate(-811.49 -247.06)"/></svg>