<svg id="Camada_4" data-name="Camada 4" xmlns="http://www.w3.org/2000/svg" viewBox="0 0 1846.51 1437.23"><defs><style>.cls-1{fill:#214893;}.cls-2{fill:#2d85c5;}</style></defs><title>icons</title><path class="cls-1" d="M1515.45,505.76q-15.5-49.17-54.8-78.08-25.64-18-62.75-26.17t-95.48-8.19h-214.9c-7.28,0-14,2.62-20.06,7.81a31.32,31.32,0,0,0-11.09,18.74l-61.1,351c-1.67,9.5,6.44,18.86,15.9,18.86h23.77c42.29,0,82.6-34.38,90-76.76l33.89-198.55c1.44-8.21,9.25-14.85,17.41-14.85h98.54q81.5,0,109.73,25t16.94,89c-4,22.92-30.91,201-38.66,215.56s-17.56,26.3-29.46,35.14q-19.41,13.28-48,19.13t-72.07,5.86H1103.9l-3.92-.05H878.78c-7.67,0-12.78-6.23-11.42-13.92l50.09-290c2.37-15.14-55.47-9.55-89.18,15Q805.05,617,796,639.78a230.91,230.91,0,0,0-13,45.28L730.7,972.22a6.79,6.79,0,0,0-.08,1.08A21.62,21.62,0,0,0,735.39,990q6.4,7.83,17.31,7.81l454.29-.41c38.94,0,72.21-3.13,99.37-8.59s50.89-14.18,71.18-26.16q49.61-29.67,82.39-78.87c21.84-32.8,53.48-229.08,60.7-270.22Q1531,555,1515.45,505.76" transform="translate(-359.87 0)"/><path class="cls-1" d="M941.75,451.46a57.94,57.94,0,1,1-57.94-57.94,57.93,57.93,0,0,1,57.94,57.94" transform="translate(-359.87 0)"/><path class="cls-2" d="M1549.31,1130.51a85.31,85.31,0,0,0-58.69,23.39c-109.24,103.48-257.07,166.56-418.84,164.78C735.1,1315,465,1034.06,478.89,693.41,491.82,377.52,751.7,124.1,1067.81,118.6a598.07,598.07,0,0,1,281,64.13,58.5,58.5,0,0,0,74.07-18.48l.73-1.05a58.68,58.68,0,0,0-21.5-86.32A715.67,715.67,0,0,0,1069.56.05c-389.82,4.74-707,323.74-709.68,713.59-2.69,399.15,320.06,723.57,718.6,723.59,235.21,0,443.36-111.64,574.3-285.34a13.39,13.39,0,0,0-10.76-21.38Z" transform="translate(-359.87 0)"/><path class="cls-2" d="M1586.21,236.52a58,58,0,1,1-58-57.94,57.94,57.94,0,0,1,58,57.94" transform="translate(-359.87 0)"/><path class="cls-1" d="M1797.28,394.22c-21.18,0-42.5,4.75-63.33,14.13a223.62,223.62,0,0,0-59.28,39.49,258.68,258.68,0,0,0-47.11,58.6,229.65,229.65,0,0,0-27.44,70.67c-5.13,24.73-5.92,48.21-2.36,69.83,3.46,21.33,10.62,40.2,21.3,56.12,10.57,15.72,20.14,23.5,36.37,32.67s35,13.6,57.32,13.6h112.67V749h124.45c31.88,0,47.85,25.84,47.85,57.71v1.16c0,41.23-41.84,75.05-81.44,81a54.62,54.62,0,0,1-11.36,1.21H1648.19a252,252,0,0,0-49.77,4.87c-15.76,3.14-57.1,21.11-72,62.12-5.08,14-9.93,29.08-13.39,40.75h407.23c21.17,0,42.48-4.73,63.35-14.08a217.25,217.25,0,0,0,58.67-39.29c17.78-16.62,33.37-38.42,46.54-60.59a229.67,229.67,0,0,0,27.41-70.47c5.09-24.6,5.86-47.78,2.21-69-3.57-21-9.26-36.31-19.95-52.11A118.65,118.65,0,0,0,2058,654.88c-16-9-34.56-13.57-55.33-13.57l-232.71.53c-31.87,0-50.34-25.84-50.34-57.71,0-45.38,45.68-82.17,91.07-82.17h45.68v.26h200a292.28,292.28,0,0,0,56.51-5.82c17.73-3.46,34.54-12.43,50-26.66a121.58,121.58,0,0,0,31.39-45.1c5.6-14.25,8.67-18.77,12.05-30.42Z" transform="translate(-359.87 0)"/></svg>