<svg id="teamviewer" data-name="katman 1" xmlns="http://www.w3.org/2000/svg" viewBox="0 0 686.2 155.91"><defs><style>.cls-1{fill:#0e8ee9;}</style></defs><title>TeamViewer</title><polygon class="cls-1" points="62.69 56.09 56.92 70.11 99.4 70.11 93.62 56.09 136.77 77.94 93.62 99.8 99.4 85.78 56.92 85.78 62.65 99.8 19.38 77.94 62.69 56.09"/><path class="cls-1" d="M146.8,156.2H9.13A9.17,9.17,0,0,1,0,147.06V9.42A9.17,9.17,0,0,1,9.13.28H146.8a9.17,9.17,0,0,1,9.13,9.14V147.06A9.17,9.17,0,0,1,146.8,156.2ZM77.38,14C42.26,14.29,14,43.1,13.7,78.23,13.44,114,42.16,142.45,78,142.48c35.18,0,63.64-29.23,64.25-64.25C142.83,42,113.58,13.67,77.38,14Z" transform="translate(0 -0.28)"/><polygon class="cls-1" points="207.1 110.97 207.1 57.1 187.89 57.1 187.89 44.62 242 44.62 242 57.1 222.79 57.1 222.79 110.97 207.1 110.97"/><path class="cls-1" d="M255.57,113c-4,0-11.59-.76-16.53-5.89-4-4.2-6.06-10.32-6.06-18.21,0-10.16,3.29-17.58,9.76-22.08a23.67,23.67,0,0,1,13.19-3.91c5,0,14.16,1.48,19,11.39,3.26,6.62,2.92,13.86,2.77,17l0,.83H247.44c.12,4.67,1.3,10.31,8.31,10.31,3.83,0,6.06-1.78,7-5.59l.17-.67h13.7l-.08,1A16,16,0,0,1,272,107.41C268.68,110.93,262.68,113,255.57,113Zm6.88-31c-.17-4-1.59-8.34-7-8.34-5.8,0-7.21,5.26-7.53,8.34Z" transform="translate(0 -0.28)"/><path class="cls-1" d="M299.78,112.33c-7,0-10.14-2.18-11.86-3.82A14.92,14.92,0,0,1,283.72,98c0-3.8,1.3-10.78,10.07-14.83,5.35-2.41,12.83-2.57,17.35-2.58a14.5,14.5,0,0,0-.58-4.83c-1.05-3-4.4-3.15-5.06-3.15a5.12,5.12,0,0,0-4.28,2.12,6,6,0,0,0-.82,3.52v.88H285.65l0-.92c.09-2.27.28-7.6,5.46-11.31,3.54-2.54,8.31-3.83,14.18-3.83,4.29,0,12.17.8,16.75,6.12,3.34,4,3.34,9.76,3.34,11.65l.09,18.14a54.26,54.26,0,0,0,1.05,11.26l.23,1.06H313l-.12-.75a37.28,37.28,0,0,1-.41-3.81A15.64,15.64,0,0,1,299.78,112.33Zm9.62-22.45c-5.35,0-11.06,1.72-11.06,6.56a5.32,5.32,0,0,0,5.55,5.55,6.62,6.62,0,0,0,5-2.28c2-2.46,2.26-5.51,2.28-9.77-.59,0-1.18-.06-1.74-.06Z" transform="translate(0 -0.28)"/><path class="cls-1" d="M393.08,111.26V83.84c0-5.58-1.14-9.3-6.72-9.3-6.71,0-7.25,5.73-7.25,13.23v23.49H364V83.57c0-4.37-.5-9-6.53-9-7.43,0-7.43,6.28-7.43,9.3v27.42H335V73.75c0-2.51-.14-5.18-.44-8.41l-.09-1H349l.33,4.39c2.07-2.31,6-5.37,13.23-5.37,4.76,0,10.93,1.34,14.28,7.47,3.14-5,7.86-7.38,14.4-7.38,9.3,0,13.26,5.38,14.53,7.69,2.37,3.86,2.36,9.14,2.35,13v27.1H393.08Z" transform="translate(0 -0.28)"/><polygon class="cls-1" points="436.78 110.97 412.55 44.71 420.77 44.71 440.96 101.89 460.89 44.71 468.57 44.71 444.62 110.97 436.78 110.97"/><path class="cls-1" d="M474.21,111.26V64.65h7.12v46.61Zm-.44-57.81V45h8v8.45Z" transform="translate(0 -0.28)"/><path class="cls-1" d="M511.11,112.6c-14.19,0-20.54-12.38-20.54-24.65,0-11.87,6.54-24.64,20.9-24.64,13.76,0,21.33,9.2,21.33,25.89v.88H498.17c.28,5.4,2.4,15.84,14.64,15.84a12.43,12.43,0,0,0,12.09-10l.15-.7h7.48l-.29,1.1C529.41,107.27,522.49,112.6,511.11,112.6Zm14-29.19c-.92-8.55-5.84-13.43-13.6-13.43-8.38,0-12.25,7-13.13,13.43Z" transform="translate(0 -0.28)"/><polygon class="cls-1" points="585.53 110.97 572.3 73.76 558.81 110.97 552.13 110.97 535.04 64.37 542.82 64.37 555.7 100.67 568.74 64.37 576.32 64.37 589.01 100.27 601.43 64.37 609.22 64.37 591.86 110.97 585.53 110.97"/><path class="cls-1" d="M631.63,112.6c-14.18,0-20.53-12.38-20.53-24.65,0-11.87,6.54-24.64,20.89-24.64,13.76,0,21.34,9.2,21.34,25.89v.88H618.69c.28,5.4,2.4,15.84,14.64,15.84a12.42,12.42,0,0,0,12.09-10l.16-.7h7.47l-.29,1.1C649.93,107.27,643,112.6,631.63,112.6Zm14-29.19c-.93-8.55-5.85-13.43-13.6-13.43-8.39,0-12.26,7-13.13,13.43Z" transform="translate(0 -0.28)"/><path class="cls-1" d="M663.45,111.26V75.63c.07-2.62-.12-5.34-.29-7.74-.06-.79-.11-1.56-.15-2.3l-.06-.93h7.32l.17,4.34a12.06,12.06,0,0,1,9.49-5.68c.53,0,1.06,0,1.6,0,1.28,0,2.57.06,3.82.13l.84,0v7l-1-.08c-.44,0-.89-.1-1.35-.17A14.77,14.77,0,0,0,682,70c-7.1,0-11.27,4.89-11.45,13.43v27.84Z" transform="translate(0 -0.28)"/></svg>